<?xml version="1.0" encoding="UTF-8" standalone="no"?>
<!-- Created with Inkscape (http://www.inkscape.org/) -->

<svg
   xmlns:dc="http://purl.org/dc/elements/1.1/"
   xmlns:cc="http://creativecommons.org/ns#"
   xmlns:rdf="http://www.w3.org/1999/02/22-rdf-syntax-ns#"
   xmlns:svg="http://www.w3.org/2000/svg"
   xmlns="http://www.w3.org/2000/svg"
   xmlns:sodipodi="http://sodipodi.sourceforge.net/DTD/sodipodi-0.dtd"
   xmlns:inkscape="http://www.inkscape.org/namespaces/inkscape"
   width="22"
   height="22"
   id="svg23539"
   version="1.1"
   inkscape:version="0.48.4 r9939"
   sodipodi:docname="New document 41">
  <defs
     id="defs23541" />
  <sodipodi:namedview
     id="base"
     pagecolor="#ffffff"
     bordercolor="#666666"
     borderopacity="1.0"
     inkscape:pageopacity="0.0"
     inkscape:pageshadow="2"
     inkscape:zoom="31.678384"
     inkscape:cx="-0.72233021"
     inkscape:cy="12.153448"
     inkscape:document-units="px"
     inkscape:current-layer="layer1"
     showgrid="false"
     inkscape:window-width="1600"
     inkscape:window-height="845"
     inkscape:window-x="-4"
     inkscape:window-y="-3"
     inkscape:window-maximized="1" />
  <metadata
     id="metadata23544">
    <rdf:RDF>
      <cc:Work
         rdf:about="">
        <dc:format>image/svg+xml</dc:format>
        <dc:type
           rdf:resource="http://purl.org/dc/dcmitype/StillImage" />
        <dc:title></dc:title>
      </cc:Work>
    </rdf:RDF>
  </metadata>
  <g
     inkscape:label="Layer 1"
     inkscape:groupmode="layer"
     id="layer1"
     transform="translate(0,-1030.3622)">
    <path
       sodipodi:type="arc"
       style="fill:#272727;fill-opacity:1;fill-rule:nonzero;stroke:#505050;stroke-width:0.88584411;stroke-linecap:square;stroke-linejoin:round;stroke-miterlimit:4;stroke-opacity:1;stroke-dasharray:none"
       id="path16230"
       sodipodi:cx="-801.25"
       sodipodi:cy="77.183609"
       sodipodi:rx="14.821428"
       sodipodi:ry="14.821428"
       d="m -786.42857,77.183609 a 14.821428,14.821428 0 1 1 -29.64286,0 14.821428,14.821428 0 1 1 29.64286,0 z"
       transform="matrix(0.72064148,0,0,0.72063377,588.42679,985.73856)" />
    <path
       style="fill:#ffffff;fill-opacity:1;stroke:#505050;stroke-width:0.25784081;stroke-linecap:butt;stroke-linejoin:round;stroke-miterlimit:4;stroke-opacity:1;stroke-dasharray:none"
       d="m 6.2320122,1037.6743 1.37081,-1.3769 3.5030358,3.4847 3.46704,-3.4716 1.40055,1.3816 -3.47705,3.4746 3.49004,3.4539 -1.402,1.4 -3.4908,-3.4616 -3.4642458,3.4616 -1.40961,-1.3846 3.48928,-3.4923 z"
       id="path16232"
       inkscape:connector-curvature="0" />
    <path
       transform="matrix(0.72064148,0,0,0.72063377,588.42679,985.73856)"
       d="m -786.42857,77.183609 a 14.821428,14.821428 0 1 1 -29.64286,0 14.821428,14.821428 0 1 1 29.64286,0 z"
       sodipodi:ry="14.821428"
       sodipodi:rx="14.821428"
       sodipodi:cy="77.183609"
       sodipodi:cx="-801.25"
       id="path16258"
       style="fill:#272727;fill-opacity:1;fill-rule:nonzero;stroke:#505050;stroke-width:0.88584411;stroke-linecap:square;stroke-linejoin:round;stroke-miterlimit:4;stroke-opacity:1;stroke-dasharray:none"
       sodipodi:type="arc" />
    <path
       inkscape:connector-curvature="0"
       id="path16260"
       d="m 6.2320122,1037.6743 1.37081,-1.3769 3.5030358,3.4847 3.46704,-3.4716 1.40055,1.3816 -3.47705,3.4746 3.49004,3.4539 -1.402,1.4 -3.4908,-3.4616 -3.4642458,3.4616 -1.40961,-1.3846 3.48928,-3.4923 z"
       style="fill:#ffffff;fill-opacity:1;stroke:#505050;stroke-width:0.25784081;stroke-linecap:butt;stroke-linejoin:round;stroke-miterlimit:4;stroke-opacity:1;stroke-dasharray:none" />
  </g>
</svg>
